<mxfile host="app.diagrams.net" agent="Mozilla/5.0 (Macintosh; Intel Mac OS X 10_15_7) AppleWebKit/537.36 (KHTML, like Gecko) Chrome/138.0.0.0 YaBrowser/25.8.0.0 Safari/537.36" version="26.2.14">
  <diagram id="deployment" name="Deployment Diagram">
    <mxGraphModel dx="1426" dy="901" grid="1" gridSize="10" guides="1" tooltips="1" connect="1" arrows="1" fold="1" page="1" pageScale="1" pageWidth="827" pageHeight="1169" math="0" shadow="0">
      <root>
        <mxCell id="0" />
        <mxCell id="1" parent="0" />
        <mxCell id="client" value="Клиент (Browser/Postman)" style="shape=rectangle;rounded=1;whiteSpace=wrap;html=1;" parent="1" vertex="1">
          <mxGeometry y="100" width="210" height="120" as="geometry" />
        </mxCell>
        <mxCell id="client_artifact" value="HTTP Request" style="shape=note;whiteSpace=wrap;html=1;" parent="client" vertex="1">
          <mxGeometry x="42" y="70" width="126" height="60" as="geometry" />
        </mxCell>
        <mxCell id="server" value="Сервер приложений" style="shape=rectangle;rounded=1;whiteSpace=wrap;html=1;" parent="1" vertex="1">
          <mxGeometry x="300" y="100" width="220" height="120" as="geometry" />
        </mxCell>
        <mxCell id="server_artifact" value="bank-recommendation.jar" style="shape=note;whiteSpace=wrap;html=1;" parent="server" vertex="1">
          <mxGeometry x="30" y="40" width="160" height="40" as="geometry" />
        </mxCell>
        <mxCell id="db" value="База данных (H2/Postgres)" style="shape=cylinder;whiteSpace=wrap;html=1;" parent="1" vertex="1">
          <mxGeometry x="580" y="75" width="180" height="170" as="geometry" />
        </mxCell>
        <mxCell id="db_artifact" value="transaction.mv.db" style="shape=note;whiteSpace=wrap;html=1;size=27;" parent="db" vertex="1">
          <mxGeometry x="25" y="95" width="130" height="68" as="geometry" />
        </mxCell>
        <mxCell id="edge1" parent="1" source="client" target="server" edge="1">
          <mxGeometry relative="1" as="geometry" />
        </mxCell>
        <mxCell id="edge2" parent="1" source="server" target="db" edge="1">
          <mxGeometry relative="1" as="geometry" />
        </mxCell>
      </root>
    </mxGraphModel>
  </diagram>
</mxfile>
